<svg version="2.0" xmlns="http://www.w3.org/2000/svg" width="64" height="64" fill="currentColor"
  viewBox="0 0 24 24">
  <defs>
    <symbol id="generic" fill="currentColor" viewBox="0 0 24 24">
      <path stroke="#000" stroke-linecap="round" stroke-linejoin="round" stroke-width="2"
        d="m15.5 8.5-7 7m1-6h.01m4.99 5h.01M10 9.5a.5.5 0 1 1-1 0 .5.5 0 0 1 1 0Zm5 5a.5.5 0 1 1-1 0 .5.5 0 0 1 1 0Zm1.329-9.741a2.99 2.99 0 0 1 2.035.877 2.99 2.99 0 0 1 .877 2.035c.021.731.032 1.097.053 1.182.046.182-.007.053.089.215.045.075.296.34.798.872A2.99 2.99 0 0 1 21 12a2.99 2.99 0 0 1-.819 2.06c-.502.531-.753.797-.798.872-.096.162-.043.033-.089.215-.021.085-.032.45-.053 1.182a2.99 2.99 0 0 1-.877 2.035 2.99 2.99 0 0 1-2.035.877c-.731.021-1.097.032-1.182.053-.182.046-.053-.007-.215.09-.075.044-.34.295-.873.797A2.99 2.99 0 0 1 12 21a2.99 2.99 0 0 1-2.06-.819c-.531-.502-.797-.753-.872-.798-.162-.096-.033-.043-.215-.089-.085-.021-.45-.032-1.182-.053a2.99 2.99 0 0 1-2.035-.877 2.99 2.99 0 0 1-.877-2.035c-.021-.731-.032-1.097-.053-1.182-.046-.182.007-.053-.09-.215-.044-.075-.295-.34-.797-.873A2.99 2.99 0 0 1 3 12c0-.797.311-1.522.819-2.06.502-.531.753-.797.798-.872.096-.162.043-.033.089-.215.021-.085.032-.45.053-1.182a2.99 2.99 0 0 1 .877-2.035 2.99 2.99 0 0 1 2.035-.877c.731-.021 1.097-.032 1.182-.053.182-.046.053.007.215-.09.075-.044.34-.295.872-.797A2.99 2.99 0 0 1 12 3a2.99 2.99 0 0 1 2.06.819c.531.502.797.753.872.798.162.096.033.043.215.089.085.021.45.032 1.182.053Z" />
    </symbol>
  </defs>
  <use href="#generic"></use>
</svg>