<svg version="2.0" xmlns="http://www.w3.org/2000/svg" width="64" height="64">
  <defs>
    <symbol id="arduino" viewBox="0 0 32 32" fill="currentColor">
      <path
        d="M30.258 9.777h.075c.087 0 .125-.012.125-.087 0-.062-.038-.087-.125-.087h-.087v.175zm-.025.375h-.125v-.65l.25-.012.035-.001c.069 0 .134.014.193.04l-.003-.001a.144.144 0 0 1 .075.126v.012-.001c0 .075-.05.125-.137.137.062.025.087.075.112.162l.038.162h-.15c-.025-.025-.025-.087-.05-.162-.025-.063-.05-.087-.137-.087h-.062l-.025.275zm-.374-.325v.014c0 .268.218.486.486.486h.015-.001a.5.5 0 0 0 .001-1h-.001a.46.46 0 0 0-.502.458l.002.044v-.002zm1.137 0v.015a.624.624 0 0 1-.624.624l-.041-.001h.002l-.025.001a.638.638 0 0 1-.637-.625V9.84a.664.664 0 0 1 .662-.65l.032-.001c.348 0 .631.282.631.631v.008zm-7.073 6.91h1.487v-1.45h-1.5V13.8h-1.412v1.5h-1.5v1.437h1.5v1.475h1.437V16.75zm-17.658 0h4.424v-1.45H6.278v1.45zM17.25 16c1.037-2.222 2.974-3.876 5.328-4.511l.058-.013c.194-.033.418-.052.646-.052l.135.002h-.007l.139-.002a4.699 4.699 0 0 1 4.697 4.569v.006a4.726 4.726 0 0 1-4.721 4.575l-.108-.001h.005c-.25 0-.525-.025-.775-.05a8.3 8.3 0 0 1-5.365-4.473l-.021-.05zm-8.148 4.499a4.062 4.062 0 0 1-.794.05h.007l-.102.001a4.711 4.711 0 0 1-4.709-4.568v-.007a4.726 4.726 0 0 1 4.829-4.574h-.005c.25 0 .525.025.787.05a8.198 8.198 0 0 1 5.365 4.473l.021.05c-1.025 2.23-2.967 3.889-5.329 4.511l-.057.013zM30.771 16a7.225 7.225 0 0 0-7.222-7.087l-.133.001h.007c-.362 0-.75.025-1.125.062a9.703 9.703 0 0 0-6.387 4.42l-.024.042c-1.423-2.273-3.694-3.902-6.36-4.45l-.063-.011a11.46 11.46 0 0 0-1.125-.062l-.114-.001a7.223 7.223 0 0 0-7.222 7.079V16a7.225 7.225 0 0 0 7.222 7.086l.12-.001h-.006a9.24 9.24 0 0 0 1.196-.08l-.047.005a9.708 9.708 0 0 0 6.399-4.407l.024-.041c1.42 2.275 3.693 3.905 6.36 4.45l.063.011c.387.037.75.062 1.137.062h.076a7.222 7.222 0 0 0 7.221-7.079v-.007z" />
    </symbol>
  </defs>
  <use href="#arduino"></use>
</svg>