<svg version="2.0" xmlns="http://www.w3.org/2000/svg" fill="#898395" xml:space="preserve" width="64"
  height="64" viewBox="0 0 32 32">
  <defs>
    <symbol id="bass-guitar" fill="#898395" viewBox="0 0 32 32">
      <path d="m21.3 10.3.9-1.2c1.4-1.9 1.1-4.6-.7-6.1-1.1-.9-2.5-1.3-3.9-.9s-2.5 1.3-3 2.7l-.3.7L13 5c-.5-.2-1.1 0-1.3.5s0 1.1.5 1.3l1.3.6-.4 1.1L12 8c-.5-.2-1.1 0-1.3.5-.2.5 0 1.1.5 1.3l1.2.5-.4 1.1-1-.4c-.5-.2-1.1 0-1.3.5-.2.5 0 1.1.5 1.3l1 .5-.4 1.1-.8-.4c-.5-.2-1.1 0-1.3.5-.2.5 0 1.1.5 1.3l1 .4c-.6 2.3.2 4.7 2 6.3.3.2.5.4.8.6V29c0 .6.4 1 1 1s1-.4 1-1v-5.1c.4.1.7.1 1.1.1.6 0 1.3-.1 1.9-.3V29c0 .6.4 1 1 1s1-.4 1-1v-6.4l.4-.4c1.8-1.5 2.6-3.8 2.1-6.1l-1.2-5.8z"/>
    </symbol>
  </defs>
  <use href="#bass-guitar"></use>
</svg>