<svg xmlns="http://www.w3.org/2000/svg" xml:space="preserve" width="64" height="64"
  viewBox="0 0 24 24" fill="currentColor">
  <defs>
    <symbol id="confluence" viewBox="0 0 24 24"  fill="currentColor">
      <path d="M.11 19.32c-.21.36-.1.82.26 1.04l4.96 3.06c.36.22.83.11 1.05-.25v-.01c3.15-5.26 3.77-4.5 13.17-.03.38.18.83.02 1.02-.36 0 0 0-.01.01-.02l2.36-5.35c.17-.38 0-.83-.38-1-1.04-.49-3.1-1.46-4.96-2.36C5.98 8.39 2.09 16.19.11 19.32zM23.89 4.69c.21-.36.1-.82-.26-1.04L18.68.6a.76.76 0 0 0-1.09.26c-3.16 5.28-3.8 4.48-13.15.04a.752.752 0 0 0-1.02.35s0 .01-.01.02L1.04 6.62c-.17.38 0 .83.38 1 1.04.49 3.11 1.46 4.97 2.36 11.62 5.63 15.51-2.13 17.5-5.29z"/>
    </symbol>
  </defs>
  <use href="#confluence"></use>
</svg>