<svg version="2.0" xmlns="http://www.w3.org/2000/svg" width="64" height="64" fill="none"
  viewBox="0 0 32 32">
  <defs>
    <symbol id="dreamweaver" viewBox="0 0 32 32" fill="none">
      <path fill="#470137"
        d="M2 12.133c0-3.547 0-5.32.69-6.675A6.333 6.333 0 0 1 5.458 2.69C6.813 2 8.586 2 12.133 2h7.734c3.547 0 5.32 0 6.675.69a6.333 6.333 0 0 1 2.768 2.768c.69 1.355.69 3.128.69 6.675v7.734c0 3.547 0 5.32-.69 6.675a6.333 6.333 0 0 1-2.768 2.768c-1.355.69-3.128.69-6.675.69h-7.734c-3.547 0-5.32 0-6.675-.69a6.333 6.333 0 0 1-2.768-2.768C2 25.187 2 23.414 2 19.867v-7.734Z" />
      <path fill="#FF61F6"
        d="M5 22.696V10.219c-.008-.079.05-.152.125-.157 1.146-.083 2.308-.058 3.457-.059 2.244 0 4.523.813 5.627 3.012.467.935.7 2.01.7 3.227a7.9 7.9 0 0 1-.363 2.501 6.002 6.002 0 0 1-.992 1.873 6.079 6.079 0 0 1-1.427 1.305c-2.024 1.323-4.722 1.118-7.02.971-.07 0-.106-.065-.106-.196Zm2.447-10.28v8.122c2.704 0 4.956-1.145 4.91-4.237.06-3.135-2.306-4.051-4.91-3.885ZM25.287 22.894h-2.17c-.118.017-.175-.093-.208-.196-.442-2.29-.906-4.544-1.318-6.768-.489 2.262-.985 4.519-1.527 6.768-.024.13-.087.196-.191.196h-2.17c-.12.014-.208-.057-.242-.176L15.205 13.3c-.035-.104.011-.157.139-.157h2.186c.104 0 .162.04.174.118.498 2.31.935 4.627 1.301 6.964.449-2.315.97-4.63 1.44-6.886.01-.125.05-.196.174-.196h2.273c.07 0 .11.046.122.137.509 2.304.902 4.569 1.301 7.024.537-2.312.848-4.684 1.37-7.004.024-.104.076-.157.157-.157h2.03c.104 0 .145.059.122.177l-2.5 9.397c-.03.104-.093.191-.207.176Z" />
    </symbol>
  </defs>
  <use href="#dreamweaver"></use>
</svg>