<svg version="2.0" xmlns="http://www.w3.org/2000/svg" width="64" height="64">
  <defs>
    <symbol id="expression-engine" fill="currentColor" viewBox="0 0 1000 1000">
      <path
        d="M500 0C224 0 0 224 0 500s224 500 500 500 500-224 500-500S776 0 500 0m31 346c-20 0-38 11-54 32-23 31-39 72-49 125l-1 6 7-1c42-8 73-20 92-38 27-24 40-51 40-81 0-13-3-24-10-31-6-8-15-12-25-12m28-23c30 0 53 7 70 20 16 14 24 30 24 51 0 17-7 35-20 52-13 18-35 33-65 46-31 14-78 26-140 36l-4 1-1 25c0 26 6 46 20 60 13 14 31 21 53 21 19 0 37-4 54-12s38-24 61-47c4 3 12 9 17 13-26 27-53 47-78 58-26 13-55 19-86 19-43 0-77-12-102-36-24-23-37-55-37-95 0-36 11-72 31-105 21-33 50-59 86-78 36-20 75-29 117-29m-180-89c-144 67-228 212-193 350 36 139 179 226 337 214-226 37-426-38-463-181-23-91 26-190 120-270l-72-43 270-69c-3 0-6 2-9 4 3-2 7-3 10-5m218-42c176 0 319 71 349 190 23 91-25 190-120 270l72 42-270 70c3-1 6-2 9-4-3 1-6 3-10 4 144-66 228-211 193-350-36-139-179-225-337-213 39-7 77-10 114-9" />
    </symbol>
  </defs>
  <use href="#expression-engine"></use>
</svg>