<svg version="2.0" xmlns="http://www.w3.org/2000/svg" width="64" height="64" viewBox="0 0 32 32" fill="currentColor">
  <defs>
    <symbol id="jira" fill="currentColor" viewBox="0 0 32 32">
      <path d="M13.821 3.179 1.842 15.159a1.184 1.184 0 0 0 0 1.68c4.724 4.71 9.435 9.463 14.158 14.157a7.455 7.455 0 0 0 2.185-5.282 7.455 7.455 0 0 0-2.283-5.379l-.002-.002-4.336-4.335 3.999-3.999a8.07 8.07 0 0 1-2.361-5.715c0-1.12.227-2.187.639-3.157l-.02.053zm2.184-2.175a7.445 7.445 0 0 0-2.189 5.284c0 2.145.904 4.079 2.352 5.441l.004.004 4.264 4.265-3.995 3.996a8.098 8.098 0 0 1 2.366 5.731c0 1.106-.221 2.16-.621 3.121l.02-.054L30.16 16.838a1.184 1.184 0 0 0 0-1.68z"/>
    </symbol>
  </defs>
  <use href="#jira"></use>
</svg>