<svg version="2.0" xmlns="http://www.w3.org/2000/svg" width="64" height="64">
  <defs>
    <symbol id="jquery" fill="none" viewBox="0 0 32 32">
      <circle cx="16" cy="16" r="14" fill="#0769AD" />
      <path fill="#78CFF5"
        d="M22.657 13.421c1.257 0 2.408-.42 3.298-1.114-.924 1.217-2.454 2.013-4.186 2.013-2.821 0-5.108-2.112-5.108-4.717 0-1.445.703-2.738 1.81-3.603a4.453 4.453 0 0 0-.922 2.704c0 2.605 2.287 4.717 5.108 4.717Z" />
      <path fill="#78CFF5"
        d="M25.906 16.659c-1.355 1.063-3.11 1.704-5.025 1.704-4.294 0-7.774-3.218-7.774-7.188 0-1.54.524-2.966 1.415-4.136-1.68 1.318-2.748 3.286-2.748 5.484 0 3.97 3.48 7.188 7.774 7.188 2.628 0 4.951-1.206 6.358-3.052Z" />
      <path fill="#78CFF5"
        d="M26 20.77c-1.931 1.843-4.606 2.984-7.563 2.984-5.887 0-10.66-4.526-10.66-10.108 0-1.77.479-3.432 1.321-4.878C7.183 10.595 6 13.113 6 15.892 6 21.474 10.773 26 16.66 26c4.023 0 7.525-2.112 9.34-5.23Z" />
    </symbol>
  </defs>
  <use href="#jquery"></use>
</svg>