<svg version="2.0" xmlns="http://www.w3.org/2000/svg" width="64" height="64" viewBox="0 0 36 36">
  <defs>
    <symbol id="logic-pro" viewBox="0 0 36 36">
      <path fill="currentColor"
        d="M18 2a16 16 0 1 0 16 16A16 16 0 0 0 18 2Zm0 30a14 14 0 1 1 14-14 14 14 0 0 1-14 14Z"
        class="clr-i-outline clr-i-outline-path-1" />
      <path fill="currentColor"
        d="M22.33 18a4.46 4.46 0 1 0-4.45 4.46A4.46 4.46 0 0 0 22.33 18Zm-4.45 2.9a2.86 2.86 0 1 1 2.85-2.9 2.86 2.86 0 0 1-2.85 2.9Z"
        class="clr-i-outline clr-i-outline-path-2" />
      <path fill="currentColor"
        d="M17.88 7.43H18V5.84h-.12a12.21 12.21 0 0 0-12.2 11.91h1.6a10.61 10.61 0 0 1 10.6-10.32Z"
        class="clr-i-outline clr-i-outline-path-3" />
      <path fill="currentColor"
        d="M30.08 18h-1.59a10.61 10.61 0 0 1-10.24 10.63v1.6A12.22 12.22 0 0 0 30.09 18s-.01 0-.01 0Z"
        class="clr-i-outline clr-i-outline-path-4" />
      <path fill="currentColor"
        d="M18 11V9.44h-.12a8.62 8.62 0 0 0-8.6 8.32h1.6a7 7 0 0 1 7-6.72Z"
        class="clr-i-outline clr-i-outline-path-5" />
      <path fill="currentColor" d="M18.25 25v1.6a8.61 8.61 0 0 0 8.23-8.6h-1.6a7 7 0 0 1-6.63 7Z"
        class="clr-i-outline clr-i-outline-path-6" />
      <path fill="none" d="M0 0h36v36H0z" />
    </symbol>
  </defs>
  <use href="#logic-pro"></use>
</svg>