<svg version="2.0" xmlns="http://www.w3.org/2000/svg" width="64" height="64">
  <defs>
    <symbol id="photoshop" viewBox="0 0 217.69 212.25">

      <rect width="217.69" height="212.25" rx="38.55" ry="38.55" style="fill:#001e36" />
      <path
        d="M452.17,554.72V461.4c0-.68.29-1,.88-1,1.56,0,3,0,5.12-.07l6.94-.15L473,460q4.16-.07,8.25-.07,11.1,0,18.69,2.77a32.43,32.43,0,0,1,12.19,7.45,28.57,28.57,0,0,1,6.64,10.3,34.15,34.15,0,0,1,2,11.76q0,11.69-5.4,19.28a30.53,30.53,0,0,1-14.6,11c-6.13,2.29-12.95,3.06-20.44,3.06q-3.21,0-4.53-.07t-3.94-.07v29.14a1.16,1.16,0,0,1-1.31,1.31H453.19C452.51,555.89,452.17,555.5,452.17,554.72ZM471.9,477.9v30.44q1.9.15,3.5.15h4.82a34.25,34.25,0,0,0,10.44-1.67,15.74,15.74,0,0,0,7.45-4.82q2.85-3.36,2.85-9.35a14.77,14.77,0,0,0-2.12-8,13.62,13.62,0,0,0-6.35-5.18,27.07,27.07,0,0,0-10.66-1.83q-3.51,0-6.21.07t-3.72.22Z"
        transform="translate(-403.15 -405.88)" style="fill:#31a8ff" />
      <path
        d="M577.28,502.81a34.14,34.14,0,0,0-8.69-3.07,46.15,46.15,0,0,0-10.15-1.17,18.89,18.89,0,0,0-5.48.66,4.92,4.92,0,0,0-2.85,1.83,4.6,4.6,0,0,0-.73,2.48,3.88,3.88,0,0,0,.88,2.34,9.94,9.94,0,0,0,3.07,2.41,61.18,61.18,0,0,0,6.43,3,63.68,63.68,0,0,1,13.95,6.64,21.21,21.21,0,0,1,7.16,7.52,20.05,20.05,0,0,1,2.12,9.35,21,21,0,0,1-3.5,12,23.05,23.05,0,0,1-10.15,8.1q-6.65,2.92-16.43,2.92a59.42,59.42,0,0,1-12.34-1.17,39.37,39.37,0,0,1-9.27-2.92,1.89,1.89,0,0,1-1-1.75V536.25a.86.86,0,0,1,.37-.8.71.71,0,0,1,.8.07A39,39,0,0,0,542.67,540a46.37,46.37,0,0,0,10.66,1.39q5.11,0,7.52-1.31a4.13,4.13,0,0,0,2.41-3.8,4.83,4.83,0,0,0-2.19-3.65q-2.19-1.75-8.91-4.24a53.68,53.68,0,0,1-12.92-6.57,22.29,22.29,0,0,1-6.86-7.67,20.14,20.14,0,0,1-2.12-9.27,20.94,20.94,0,0,1,3.07-11,22.29,22.29,0,0,1,9.49-8.32q6.42-3.21,16.06-3.21a71.11,71.11,0,0,1,11.24.8,29.48,29.48,0,0,1,7.83,2.12,1.33,1.33,0,0,1,.88.8,4,4,0,0,1,.15,1.1v14.75a1,1,0,0,1-.44.88A1.41,1.41,0,0,1,577.28,502.81Z"
        transform="translate(-403.15 -405.88)" style="fill:#31a8ff" />
    </symbol>
  </defs>
  <use href="#photoshop"></use>
</svg>