<svg version="2.0" xmlns="http://www.w3.org/2000/svg" width="64" height="64">
  <defs>
    <symbol id="php" viewBox="0 0 512 512" fill="currentColor">
      <path
        d="M171.844 204.374c-11.137-12.748-28.856-19.123-53.146-19.123H37.96L.5 377.99h41.984l9.96-51.241h35.963c15.869 0 28.923-1.663 39.173-5.003 10.247-3.33 19.562-8.92 27.945-16.767 7.037-6.467 12.725-13.599 17.087-21.4 4.354-7.797 7.448-16.401 9.278-25.812 4.443-22.848 1.09-40.643-10.046-53.393zm-33.351 50.449c-2.903 14.917-8.492 25.563-16.775 31.941-8.288 6.38-20.897 9.569-37.822 9.569H58.354l15.678-80.667H102.8c15.952 0 26.582 2.943 31.896 8.832 5.31 5.892 6.579 15.999 3.797 30.325zm199.335-17.764-17.429 89.69h-42.317l16.572-85.278c1.884-9.702 1.193-16.32-2.084-19.847-3.272-3.529-10.242-5.296-20.9-5.296h-33.289l-21.458 110.421h-41.656l37.46-192.739h41.656l-9.959 51.241h37.111c23.346 0 39.452 4.077 48.317 12.218 8.866 8.146 11.519 21.344 7.976 39.59zm161.726-32.685c-11.137-12.748-28.856-19.123-53.142-19.123h-80.738l-37.46 192.739h41.984l9.96-51.241h35.963c15.869 0 28.918-1.663 39.169-5.003 10.247-3.33 19.562-8.92 27.945-16.767 7.036-6.467 12.729-13.599 17.088-21.4 4.354-7.797 7.447-16.401 9.277-25.812 4.442-22.848 1.094-40.643-10.046-53.393zm-33.348 50.449c-2.902 14.917-8.491 25.563-16.779 31.941-8.284 6.38-20.896 9.569-37.822 9.569h-25.537l15.678-80.667h28.765c15.952 0 26.581 2.943 31.899 8.832 5.31 5.892 6.574 15.999 3.796 30.325z" />
    </symbol>
  </defs>
  <use href="#php"></use>
</svg>