<svg version="2.0" xmlns="http://www.w3.org/2000/svg" width="64" height="64">
  <defs>
    <symbol id="premier" viewBox="0 0 189.74 185">
      <rect width="189.74" height="185" rx="22.4" ry="22.4" style="fill:#00005b" />
      <path
        d="M462.24,549.23V467.9q0-.89.77-.89c1.35,0,2.59,0,4.46-.07l6-.13,6.87-.13q3.63-.06,7.19-.06A47.83,47.83,0,0,1,503.87,469a28.29,28.29,0,0,1,10.62,6.49,24.88,24.88,0,0,1,5.79,9,29.69,29.69,0,0,1,1.78,10.25,28.25,28.25,0,0,1-4.71,16.8,26.61,26.61,0,0,1-12.72,9.61,50.79,50.79,0,0,1-17.82,2.67q-2.8,0-4-.06c-.77,0-1.91-.06-3.44-.06v25.4a1,1,0,0,1-.86,1.15h0a1.14,1.14,0,0,1-.28,0H463.12C462.52,550.23,462.24,549.91,462.24,549.23Zm17.19-67v26.53q1.65.12,3.06.13h4.21a29.67,29.67,0,0,0,9.09-1.45,13.69,13.69,0,0,0,6.49-4.2,12.22,12.22,0,0,0,2.49-8.15,12.93,12.93,0,0,0-1.85-7,11.89,11.89,0,0,0-5.53-4.52,23.57,23.57,0,0,0-9.29-1.58q-3.06,0-5.41.06c-1.58,0-2.66.11-3.25.19Z"
        transform="translate(-417.13 -419.5)" style="fill:#99f" />
      <path
        d="M533,486.83h13.87a1.73,1.73,0,0,1,1.66,1.27A8.18,8.18,0,0,1,549,490a20.6,20.6,0,0,1,.4,2.49q.13,1.34.13,2.87a29.67,29.67,0,0,1,8.47-6.81,24.78,24.78,0,0,1,12-3.09,1,1,0,0,1,1.15.86,1.14,1.14,0,0,1,0,.28v15.42c0,.59-.42.89-1.28.89a33,33,0,0,0-8.56.79,31.14,31.14,0,0,0-6.62,2.1,12.54,12.54,0,0,0-4.07,2.93v40.34c0,.77-.34,1.15-1,1.15H534a1.12,1.12,0,0,1-1.27-1h0a1,1,0,0,1,0-.32V505.19c0-1.87,0-3.84-.07-5.93s-.11-4.14-.19-6.17a46.64,46.64,0,0,0-.35-5.38.73.73,0,0,1,.53-.89h0a.79.79,0,0,1,.37,0Z"
        transform="translate(-417.13 -419.5)" style="fill:#99f" />
    </symbol>
  </defs>
  <use href="#premier"></use>
</svg>