<svg baseProfile="full"
  xmlns="http://www.w3.org/2000/svg"
  xmlns:xlink="http://www.w3.org/1999/xlink" width="64" height="64" fill="currentColor" viewBox="-3 0 24 24">
  <defs>
    <linearGradient id="sublid" x1="16.817" x2="18.503" y1="22.875" y2="18.59"
      gradientUnits="userSpaceOnUse">
      <stop stop-color="#FF9700" />
      <stop offset=".53" stop-color="#F48E00" />
      <stop offset="1" stop-color="#D06F00" />
    </linearGradient>
    <symbol id="sublimetext" fill="currentColor" viewBox="-3 0 24 24">
      <path d="M.003 23.617V17.93a.72.72 0 0 1 .457-.654l.005-.002 7.453-2.361-7.454-2.366a.706.706 0 0 1-.398-.377l-.002-.005a.434.434 0 0 1-.061-.222v-.014.001-5.737c0-.083.023-.161.064-.227l-.001.002a.7.7 0 0 1 .395-.379l.005-.002L18.014.023a.343.343 0 0 1 .461.365V.386v5.686a.724.724 0 0 1-.457.654l-.005.002-7.375 2.338 7.378 2.339a.722.722 0 0 1 .462.656V17.752a.53.53 0 0 1-.011.106l.001-.003a.725.725 0 0 1-.45.558l-.005.002L.464 23.979a.429.429 0 0 1-.128.022.345.345 0 0 1-.332-.387v.002z"/>
    </symbol>
  </defs>
  <use href="#sublimetext"></use>
</svg>